<?xml version="1.0" encoding="utf-8"?>
<!-- Generator: Adobe Illustrator 27.5.0, SVG Export Plug-In . SVG Version: 6.00 Build 0)  -->
<svg version="1.1" xmlns="http://www.w3.org/2000/svg" xmlns:xlink="http://www.w3.org/1999/xlink" x="0px" y="0px"
	 viewBox="0 0 500 500" style="enable-background:new 0 0 500 500;" xml:space="preserve">
<g id="BACKGROUND">
	<rect style="fill-rule:evenodd;clip-rule:evenodd;fill:#FFFFFF;" width="500" height="500"/>
</g>
<g id="OBJECTS">
	<g>
		<path style="fill-rule:evenodd;clip-rule:evenodd;fill:#FFBE80;" d="M393.427,143.258c-0.017-13.708-2.605-24.481-18.418-26.455
			c-9.92-0.995-21.962-0.154-32.177-0.131c-57.898,0.142-115.802,0.119-173.701-0.023c-12.519-0.028-25.801-0.483-38.212-0.114
			c-16,0.466-29.487,5.381-36.728,20.767c-6.462,14.357-4.164,35.271-4.056,51.016c0.449,64.724,0.131,129.442-0.063,194.16
			c-0.04,13.515-0.262,27.28,0.046,40.772c0.21,9.232,5.182,16.728,13.998,19.117c4.243,1.155,11.746,0.648,16.04,0.648
			c75.087-0.017,150.419-0.796,225.479,0.028c10.563,0.159,32.285,2.429,40.59-4.454c1.428-1.183,2.588-2.594,3.532-4.169
			c5.535-9.243,3.646-24.356,3.544-34.219c-0.722-71.709,0.108-143.417,0.148-215.126
			C393.449,171.135,393.444,157.2,393.427,143.258L393.427,143.258z"/>
		<g>
			<path style="fill-rule:evenodd;clip-rule:evenodd;fill:#B8D6FC;" d="M132.93,209.764c-1.28,0.865-1.9,1.103-0.995-0.091
				c-2.713,0.893-3.498,0.808-1.803-0.518c-2.452,0.131-3.248-0.159-1.524-1.041c-2.577-0.825-2.275-1.251-1.183-1.627
				c-2.571-0.813-2.053-1.553-0.785-2.309c-2.321-2.48-2.258-3.39-0.336-3.054c-1.615-3.055-1.877-4.732,0.171-3.891
				c-0.842-2.958-0.694-4.715,0.728-4.795c-1.365-0.876-1.132-2.264,0.597-2.759c-2.378-0.859-8.413-2.446-9.431-11.035
				c1.354,1.911,3.111,6.007,10.443,7.764c-6.826-5.404-6.973-12.838-5.597-18.35c-0.057,6.467,2.736,11.962,6.962,14.527
				c-4.829-4.63-4.943-15.022-0.961-24.402c-4.05,13.589,2.702,19.481,6.991,27.12C139.852,191.795,140.551,198.615,132.93,209.764
				L132.93,209.764z"/>
			<path style="fill-rule:evenodd;clip-rule:evenodd;fill:#E54A00;" d="M132.321,209.775c6.769-7.531,7.667-17.354,5.005-22.991
				c-3.202-6.786-8.651-14.794-6.9-23.378c-0.472,8.663,4.943,15.392,8.361,22.388c1.678,3.436,2.15,8.879,0.29,14.237
				C137.81,203.689,135.472,207.409,132.321,209.775L132.321,209.775z"/>
			<path style="fill-rule:evenodd;clip-rule:evenodd;fill:#81BDFF;" d="M132.958,209.104c-1.32,0.728-1.945,0.893-0.978-0.199
				c-2.747,0.592-3.527,0.421-1.769-0.717c-2.446-0.142-3.219-0.523-1.462-1.206c-2.52-1.115-2.196-1.513-1.092-1.763
				c-2.514-1.098-1.957-1.78-0.66-2.395c-2.179-2.742-2.065-3.646-0.171-3.094c-1.45-3.231-1.621-4.943,0.37-3.868
				c-0.677-3.054-0.438-4.795,0.978-4.715c-1.308-1.024-1.013-2.395,0.734-2.696c-2.321-1.121-8.231-3.379-8.794-12.081
				c1.246,2.065,2.776,6.354,9.971,8.924c-6.501-6.16-6.257-13.611-4.602-18.969c-0.398,6.462,2.099,12.263,6.166,15.301
				c-4.568-5.165-4.135-15.574,0.318-24.51c-4.738,13.134,1.667,19.783,5.529,27.894
				C140.785,191.903,141.12,198.809,132.958,209.104L132.958,209.104z"/>
			<path style="fill-rule:evenodd;clip-rule:evenodd;fill:#0078FF;" d="M132.958,209.104c-1.32,0.728-1.945,0.893-0.978-0.199
				c-0.836,0.182-1.49,0.29-1.945,0.324c0.034-0.028,0.063-0.051,0.097-0.074c-0.273,0.011-0.529,0.023-0.756,0.028
				c-0.267-0.125-0.011-0.449,0.836-0.995c-2.446-0.142-3.219-0.523-1.462-1.206c-2.52-1.115-2.196-1.513-1.092-1.763
				c-0.665-0.296-1.12-0.558-1.399-0.796c0.119-0.08,0.245-0.165,0.381-0.245c-0.227-0.245-0.432-0.472-0.62-0.688
				c0.182-0.239,0.535-0.455,0.978-0.665c-0.563-0.711-0.973-1.297-1.24-1.763c0.159,0.006,0.341,0.028,0.546,0.063
				c-0.284-0.535-0.523-1.024-0.717-1.468c0.227-0.125,0.643-0.097,1.24,0.074c-0.489-1.086-0.83-1.997-0.995-2.69
				c0.182,0.028,0.392,0.097,0.643,0.193c-0.176-0.609-0.307-1.166-0.392-1.672c0.245-0.063,0.609,0.028,1.115,0.301
				c-0.318-1.428-0.432-2.565-0.324-3.367c0.102-0.028,0.211-0.045,0.33-0.057c-0.102-0.063-0.199-0.137-0.284-0.205
				c0.171-0.745,0.575-1.126,1.257-1.086c-0.529-0.415-0.796-0.882-0.813-1.314c0.136-0.057,0.279-0.108,0.438-0.154
				c-0.125-0.046-0.262-0.091-0.404-0.142c0.125-0.512,0.637-0.933,1.513-1.086c-1.49-0.722-4.471-1.911-6.558-4.988
				c1.479,1.16,3.521,2.241,6.461,2.946c-1.354-1.069-2.446-2.218-3.31-3.419c1.206,0.836,2.702,1.627,4.585,2.304
				c-2.975-2.816-4.539-5.904-5.199-8.941c1.223,2.702,3.06,4.88,5.29,6.234c-1.991-1.906-3.18-4.795-3.612-8.191
				c1.064,3.02,2.833,5.551,5.085,7.23c-2.355-2.662-3.379-6.718-3.208-11.24c1.297,5.893,5.034,10.051,7.764,14.92
				c3.163,5.626,4.107,11.507-0.665,20.238C134.795,206.686,133.936,207.869,132.958,209.104L132.958,209.104z"/>
			<path style="fill-rule:evenodd;clip-rule:evenodd;fill:#B8D6FC;" d="M132.617,211.595c-1.064,0.722-1.649,0.922-1.138-0.074
				c-2.633,0.745-3.538,0.677-2.207-0.427c-2.656,0.114-3.652-0.125-2.11-0.859c-3.185-0.677-3.026-1.035-1.974-1.348
				c-3.174-0.671-2.907-1.286-1.815-1.917c-3.578-2.053-3.879-2.81-1.621-2.537c-3.037-2.531-4.01-3.925-1.405-3.225
				c-2.139-2.457-2.696-3.919-1.155-3.987c-1.866-0.722-2.184-1.877-0.472-2.292c-3.572,0.068-11.712-0.506-14.942-9.141
				c1.9,2.11,5.352,5.733,14.721,6.422c-9.562-4.027-12.326-9.22-13.702-15.221c4.329,6.922,8.31,10.346,13.651,12.047
				c-7.235-3.834-11.621-12.468-11.052-20.266c0.523,10.881,10.898,16.131,18.827,22.502
				C132.912,196.653,136.479,202.318,132.617,211.595L132.617,211.595z"/>
			<path style="fill-rule:evenodd;clip-rule:evenodd;fill:#0043C2;" d="M126.604,214.285c5.04,1.365,11.131-0.455,14.379-5.551
				c1.405-2.207,3.509-4.903,6.149-5.534c5.466-1.303,18.611,6.49,18.577,6.456c-3.8-3.896-10.693-6.592-16.922-8.743
				c-8.708-6.985-16.467,2.958-22.485,7.366c-3.862,2.827-9.129,3.839-13.867,2.69c-3.76-0.91-6.001-2.662-5.995-2.07
				c0.034,2.343,4.215,6.592,12.605,5.045c-5.193,3.055-13.077,4.329-13.674,4.983c-0.83,0.904,10.699,0.762,15.898-2.975
				c-0.961,1.524-9.96,7.531-9.408,7.849c0.37,0.216,8.72-3.492,13.048-7.866c-2.019,2.315-5.796,6.649-5.597,7.542
				C119.625,224.86,124.983,221.253,126.604,214.285L126.604,214.285z"/>
			<path style="fill-rule:evenodd;clip-rule:evenodd;fill:#FF8E1C;" d="M132.361,212.033c3.464-6.53-0.097-14.937-5.227-19.823
				c-6.177-5.887-14.061-12.883-16.16-17.758c-1.149-2.668-0.745-2.15,0.006-0.62c2.133,4.368,11.325,11.632,17.542,17.405
				C133.703,196.055,137.269,204.73,132.361,212.033L132.361,212.033z"/>
			<path style="fill-rule:evenodd;clip-rule:evenodd;fill:#81BDFF;" d="M132.708,211.453c-1.001,0.626-1.553,0.774-1.069-0.176
				c-2.491,0.512-3.345,0.364-2.088-0.626c-2.508-0.119-3.447-0.449-1.991-1.041c-3.003-0.967-2.855-1.308-1.86-1.53
				c-2.998-0.955-2.742-1.541-1.712-2.076c-3.379-2.372-3.663-3.157-1.53-2.685c-2.867-2.798-3.788-4.283-1.325-3.35
				c-2.019-2.651-2.543-4.158-1.086-4.09c-1.763-0.887-2.065-2.076-0.449-2.338c-3.367-0.25-11.052-1.547-14.095-10.472
				c1.792,2.275,5.045,6.211,13.884,7.736c-9.021-4.88-11.626-10.324-12.923-16.45c4.084,7.315,7.838,11.092,12.878,13.27
				c-6.831-4.482-10.961-13.503-10.432-21.25c0.501,10.927,10.29,17.104,17.769,24.185
				C132.986,196.539,136.348,202.523,132.708,211.453L132.708,211.453z"/>
			<path style="fill-rule:evenodd;clip-rule:evenodd;fill:#0078FF;" d="M132.662,211.476c-0.973,0.609-1.502,0.734-1.024-0.199
				c-1.28,0.262-3.601,0.563-2.088-0.626c-0.597-0.028-4.021-0.21-1.991-1.041c-3.003-0.967-2.855-1.308-1.86-1.53
				c-2.998-0.955-2.742-1.541-1.712-2.076c-3.379-2.372-3.663-3.157-1.53-2.685c-2.867-2.798-3.788-4.283-1.325-3.35
				c-2.019-2.651-2.543-4.158-1.086-4.09c-1.763-0.887-2.065-2.076-0.449-2.338c-1.945-0.142-5.335-0.637-8.43-2.753
				c1.928,0.677,4.323,1.2,7.332,1.422c-2.855-1.2-5.102-2.508-6.888-3.908c1.957,1.029,4.477,1.934,7.775,2.503
				c-2.696-1.462-4.823-2.969-6.507-4.533c1.723,1.229,3.549,2.122,5.569,2.764c-4.113-2.178-7.303-5.91-9.186-10.153
				c3.089,4.448,6.206,7.07,10.079,8.742c-2.924-1.917-5.352-4.67-7.133-7.793c3.856,4.334,9.357,7.696,14.015,11.439
				c4.812,3.868,8.003,7.884,7.986,13.276l0,0l0,0C134.204,206.63,133.714,208.916,132.662,211.476L132.662,211.476z"/>
			<path style="fill-rule:evenodd;clip-rule:evenodd;fill:#0043C2;" d="M127.458,191.317c4.988,4.926,7.861,9.948,6.342,16.7
				c-0.614,0.813-0.694,1.081-1.695,1.519c-0.677,0.301-0.848,0.188-0.125-0.631c-2.747,0.592-3.527,0.421-1.769-0.717
				c-2.446-0.142-3.219-0.523-1.462-1.206c-2.52-1.115-2.196-1.513-1.092-1.763c-2.514-1.098-1.957-1.78-0.66-2.395
				c-2.179-2.742-2.065-3.646-0.171-3.094c-1.45-3.231-1.621-4.943,0.37-3.868C126.656,193.422,126.695,191.824,127.458,191.317
				L127.458,191.317z"/>
			<path style="fill-rule:evenodd;clip-rule:evenodd;" d="M143.464,199.701c-2.264-0.478-2.719,2.742-0.54,2.861
				C145.005,202.676,145.119,200.048,143.464,199.701L143.464,199.701z"/>
			<path style="fill-rule:evenodd;clip-rule:evenodd;fill:#0078FF;" d="M165.192,209.36c-3.367-2.776-8.714-5.017-11.569-6.012
				c-6.496-2.264-10.944-0.779-15.557,4.141c-3.856,4.118-7.235,4.92-11.461,4.772c-4.75-0.165-0.848,1.883,1.018,2.315
				c4.824,1.109,10.329-1.064,13.361-5.842c1.399-2.213,3.509-4.903,6.149-5.534C151.945,202.051,162.712,207.955,165.192,209.36
				L165.192,209.36z"/>
		</g>
		<g>
			<g>
				<path style="fill-rule:evenodd;clip-rule:evenodd;fill:#0078FF;" d="M180.388,331.401c2.116-0.353,2.554-0.728,10.915-3.441
					c1.393-0.455,3.054-0.995,4.766-1.615c1.581,7.576,6.74,16.148,10.529,18.224c-1.303-1.297,5.825-14.948,5.756-17.462
					c-0.023-0.831,0-1.65,0.068-2.4c1.467,0.085,3.054-0.063,4.67-0.438c5.665-1.314,9.783-1.837,12.241,1.234
					c2.366,2.958-0.051-12.36-8.771-17.019c5.318-1.297,12.616-1.815,17.024-10.415c-8.026,2.582-6.956-5.068-14.601-4.801
					c-3.157,0.108-6.336,1.809-8.89,4.243c-0.882-5.842,1.172-11.831,5.608-11.103c0.33,0.057,2.082-0.188,0.387-1.411
					c-3.851-2.787-10.017,0.319-11.655,2.958c-4.477,0.199-6.644,4.346-6.968,8.919c-4.624-3.032-10.273-1.911-11.934,0.626
					c-3.054-0.404-6.996,2.668-8.498,6.16c-0.569,1.32-0.574,2.508,1.285,1.035c3.373-2.679,7.104,1.797,7.838,2.912
					c0.973,1.49,1.979,2.656,2.958,3.6C183.135,314.587,176.588,332.044,180.388,331.401L180.388,331.401z"/>
				<path style="fill-rule:evenodd;clip-rule:evenodd;fill:#E54A00;" d="M199.875,311.044c-0.017-0.114-0.034-0.233-0.057-0.347
					c-5.551-3.003-10.426-8.725-12.65-12.832c-0.273-0.501-0.677-1.542-1.2-1.82c-1.109-0.592-0.301-1.559,0.495-1.399
					c1.109,0.222,0.466,1.086,0.461,1.274c-0.006,0.262,0.956,1.979,1.143,2.287c2.736,4.488,6.82,8.902,11.575,11.518
					c-0.313-1.547-0.751-2.929-1.371-4.13c-1.024-1.996-3.481-4.664-4.732-6.319c-2.816-3.709-4.317-6.234-6.035-10.472
					c-2.207-0.444,2.423-2.662,0.648-0.25c1.121,3.1,3.669,6.843,6.445,9.709c2.008,2.076,3.635,3.578,6.177,4.829
					c1.559,0.768,3.373,1.502,4.954,2.247c-0.034-0.427-0.057-0.751-0.068-0.91c-0.165-2.491-0.887-6.143-1.934-9.471
					c-0.154-0.21-0.313-0.409-0.466-0.603c-0.614-0.779-1.979-2.275-3.072-2.486c-0.506-0.097-1.007-0.256-0.819-0.842
					c0.233-0.734,1.547-0.995,1.661,0.199c0.034,0.387,0.08,0.319,0.444,0.637c0.677,0.586,1.24,1.092,1.746,1.598
					c-0.694-1.951-1.502-3.697-2.361-4.892c-0.33-0.449-1.268-1.24-1.337-1.604c-0.148-0.819,1.564-1.593,1.684,0.136
					c0.068,1.041,0.512,1.57,0.99,2.486c0.899,1.752,1.655,3.492,2.281,5.261c0.37,0.455,0.728,0.956,1.121,1.547
					c1.388,2.104,2.372,4.374,3.049,6.752c0.358,1.285,0.654,2.901,0.597,4.454c2.77,3.003,0.586,6.979-2.025,8.322
					c-2.173,1.115-4.818,0.711-6.291-1.65c-1.985-0.324-4.249-1.081-5.523-1.644c-5.415-2.469-8.396-5.893-11.029-10.597
					c-0.273-0.489-1.49-2.065-1.195-2.548c0.563-0.614,1.513-0.483,1.439,0.54c-0.085,1.251-0.33,0.705,0.301,1.979
					c2.019,4.067,6.513,7.997,10.972,10.068c0.529,0.239,1.041,0.444,1.598,0.637c0.831,0.29,1.957,0.671,3.089,0.921
					c-0.216-0.466-0.398-0.99-0.529-1.576c-3.788-0.859-7.428-3.032-9.556-5.375c-0.751-0.83-1.155-1.724-2.059-2.366
					c-1.337-0.95,0.313-2.105,1.029-1.331c0.58,0.626-0.711,1.058,1.155,2.975c2.139,2.19,5.495,4.039,8.617,4.937
					C199.386,310.941,199.608,310.992,199.875,311.044L199.875,311.044z M206.78,305.862c0.518,0.273,0.995,0.546,1.399,0.825
					c-0.011-3.14-1.303-6.57-2.918-9.368c0.603,2.116,1.03,4.3,1.308,6.621C206.644,304.559,206.718,305.208,206.78,305.862
					L206.78,305.862z"/>
			</g>
			<g>
				<path style="fill-rule:evenodd;clip-rule:evenodd;fill:#81BDFF;" d="M340.824,194.997c-0.665,1.149,1.416,2.793,1.536,3.783
					c0.108,0.842,0.199,1.775,0.313,2.73c-5.842-2.122-10.83,3.777-12.69,8.464c-0.745,1.877-0.41,2.571,0.961,1.138
					c1.001-1.041,5.574-2.071,7.514-1.974c0.574,0.023,1.138,0.085,1.661,0.171c-2.076,4.636-2.4,12.127,1.177,17.257
					c0.478,0.677,1.047,0.984,1.655,0.813c0.836-0.233,0.546-0.739,0.08-1.291c-1.524-1.826,8.981-6.223,10.631-8.185
					c0.068-0.08,0.137-0.165,0.199-0.245c2.031,2.736,3.288,6.581,1.229,8.054c-1.542,1.104-0.319,1.086,0.904,0.859
					c5.961-1.104,6.951-8.947,4.3-13.418c2.452,0.017,4.75,0.933,5.586,2.639c0.961,1.957,1.28,1.576,1.325,0.552
					c0.228-4.869-4.033-10.17-8.481-11.888c0.125-0.142,0.245-0.284,0.364-0.438c0.518-0.654,3.168-3.373,5.546-2.429
					c1.303,0.523,1.303-0.08,0.91-0.677c-1.052-1.587-3.822-2.668-5.984-2.087c-1.189-1.104-5.318-0.961-8.634,1.268
					c-1.638-3.475-5.472-6.678-8.731-7.463C336.074,191.157,341.717,193.455,340.824,194.997L340.824,194.997z M348.981,208.392
					l0.029,0.017h-0.023L348.981,208.392z"/>
				<path style="fill-rule:evenodd;clip-rule:evenodd;fill:#E54A00;" d="M350.107,203.375c0.034-0.023,0.074-0.046,0.114-0.063
					c0.688-3.777,2.952-7.736,4.772-9.829c0.222-0.256,0.705-0.694,0.768-1.047c0.137-0.745,0.768-0.478,0.808,0.006
					c0.057,0.671-0.495,0.478-0.597,0.512c-0.137,0.051-0.887,0.939-1.018,1.104c-1.945,2.474-3.635,5.711-4.255,8.964
					c0.813-0.512,1.513-1.058,2.076-1.684c0.887-0.978,1.9-2.901,2.571-3.942c1.507-2.332,2.594-3.692,4.545-5.512
					c-0.108-1.337,1.769,0.842,0.233,0.319c-1.451,1.257-3.009,3.447-4.084,5.591c-0.774,1.547-1.308,2.77-1.57,4.459
					c-0.074,0.489-0.137,1.007-0.199,1.524c1.45-1.496,3.481-4.243,4.061-5.972c0.08-0.245,0.137-0.796,0.245-0.921
					c0.25-0.296,0.916,0.063,0.341,0.614c-0.341,0.33-0.427,0.631-0.631,1.064c-1.052,2.167-2.298,3.965-3.959,5.705l-0.125,0.131
					c-0.119,0.995-0.245,1.957-0.444,2.685c2.241-0.922,4.374-3.265,5.557-5.193c0.313-0.506,0.882-1.581,0.825-2.235
					c-0.028-0.307-0.017-0.626,0.313-0.637c0.421-0.011,0.762,0.677,0.154,0.984c-0.193,0.097-0.154,0.108-0.262,0.375
					c-0.546,1.342-0.904,2.11-1.735,3.242c-0.887,1.206-1.923,2.218-3.06,3.077c-0.58,0.432-1.32,0.893-2.093,1.172
					c-1.12,2.258-3.583,1.826-4.704,0.597c-0.887-0.973-1.098-2.486-0.193-3.766c-0.165-1.217-0.114-2.736-0.017-3.606
					c0.455-3.555,1.786-5.927,3.839-8.356c0.216-0.256,0.848-1.257,1.149-1.189c0.404,0.193,0.483,0.757-0.063,0.921
					c-0.665,0.205-0.421-0.046-0.99,0.569c-1.814,1.957-3.174,5.284-3.566,8.219c-0.046,0.347-0.074,0.683-0.091,1.035
					c-0.023,0.563-0.046,1.331,0.006,2.065c0.25-0.279,0.557-0.535,0.927-0.774c-0.341-1.359-0.358-2.85-0.091-4.021
					c0.114-0.501,0.33-0.899,0.341-1.399c0.023-0.734,0.802-0.506,0.7-0.034c-0.085,0.381-0.535,0.063-0.762,1.268
					C349.703,200.628,349.788,202.118,350.107,203.375L350.107,203.375z"/>
				<path style="fill-rule:evenodd;clip-rule:evenodd;fill:#81BDFF;" d="M287.049,370.631c23.952,6.45,27.058,45.026,17.491,55.93
					c1.957-10.278-7.918-15.716-14.47-25.528C284.308,392.394,283.193,379.664,287.049,370.631L287.049,370.631z"/>
				<path style="fill-rule:evenodd;clip-rule:evenodd;fill:#0078FF;" d="M293.431,253.686c-6.609-13.122,6.052-35.215,25.414-41.562
					C308.05,227.817,317.56,244.187,293.431,253.686L293.431,253.686z"/>
				<path style="fill-rule:evenodd;clip-rule:evenodd;fill:#0078FF;" d="M169.347,225.86c-20.192-9.618-43.485,3.868-50.794,24.191
					C140.43,226.025,150.315,250.074,169.347,225.86L169.347,225.86z"/>
				<path style="fill-rule:evenodd;clip-rule:evenodd;fill:#0078FF;" d="M306.144,330.98c5.546-5.711,16.694-2.696,23.048,10.068
					c5.057,10.159,8.714,25.477,1.217,48.974c-0.904-17.826-36.898-30.374-42.37-48.752
					C284.939,330.883,298.067,327.266,306.144,330.98L306.144,330.98z"/>
				<path style="fill-rule:evenodd;clip-rule:evenodd;fill:#81BDFF;" d="M340.648,235.427c5.028,1.957,8.276-0.506,11.057-2.304
					c8.35-5.404,14.777-0.603,19.203,1.803c3.111,1.689,8.396,3.583,12.292,4.095c12.115,1.587,14.766,9.232,16.848,16.097
					c-3.947-3.97-9.857-8.225-15.767-3.999c-4.215,3.015-6.49,4.994-11.99,1.997c-4.624-2.52-9.994-0.455-12.309,3.845
					c-2.543,4.715-6.371,6.57-14.487,5.705c-18.884-1.996-2.582,7.235-41.699,9.658C307.47,241.769,325.466,229.54,340.648,235.427
					L340.648,235.427z"/>
				<path style="fill-rule:evenodd;clip-rule:evenodd;fill:#81BDFF;" d="M337.775,291.995c4.914-7.343,11.109-8.686,16.78-7.44
					c15.767,3.458,13.805,15.318,21.495,16.899c22.143,4.556,5.296,19.584,17.366,18.953c5.557-0.29,12.491,4.26,11.837,13.731
					c-0.654,9.476,3.424,7.303,8.998,11.837c5.574,4.539,4.26,17.525,4.26,17.525c-7.337-8.993-10.608-8.475-20.369-8.623
					c-6.683-0.102-14.487-1.701-19.641-7.952c-6.752-8.179-7.935-7.417-18.725-7.019c-19.169,0.7-7.156-9.704-20.136-17.519
					c-4.801-2.895-11.723-1.695-16.069-9.317c-8.049-14.112-22.257-10.836-30.778-1.183
					C301.969,294.4,318.112,285.851,337.775,291.995L337.775,291.995z"/>
				<path style="fill-rule:evenodd;clip-rule:evenodd;fill:#0043C2;" d="M308.09,272.126c-7.844,1.769-9.692-4.306-16.78-0.973
					c3.993-9.63,16.558-10.375,20.744-6.701c-3.976-8.674,5.341-18.378,7.406-18.736c-3.663,3.874,4.255,9.891,2.594,16.575
					c7.622-3.561,10.91,3.783,18.003-2.361c-2.662,7.355-10.796,12.127-15.306,12.207c11.842,2.855,13.845,12.332,13.52,12.286
					c-4.96-0.648-10.494,0.068-14.84-1.291c-0.08,5.796-2.537,12.883-4.659,16.876c-1.411-2.673-8.475-10.011-9.618-16.364
					c-4.778,2.389-10.654,2.713-15.835,2.087C303.949,277.917,295.439,276.972,308.09,272.126L308.09,272.126z"/>
				<path style="fill-rule:evenodd;clip-rule:evenodd;fill:#0078FF;" d="M367.142,347.168c4.027,0.438,5.608,3.026,16.728-0.216
					c-4.363-4.408-12.03-12.696-19.26-9.226c7.377-4.289,4.664-7.468,7.099-12.298c-7.224-0.665-10.648,1.274-13.435,6.536
					c3.157-6.507-3.982-14.857-11.575-16.353c-2.548,5.745,4.59,11.825,2.042,17.57c-4.687-4.511-15.494-5.182-20.926-4.516
					c6.211,2.52,8.964,14.379,18.753,16.29c-7.827,2.275-4.471,16.472-10.602,19.095c7.104,2.463,13.97-1.331,20.044-10.699
					c3.401,8.35,8.6,1.701,16.797,14.948C374.679,361.61,373.547,352.981,367.142,347.168L367.142,347.168z"/>
				<path style="fill-rule:evenodd;clip-rule:evenodd;fill:#FF8E1C;" d="M358.491,332.834c0.159-0.057,0.313-0.12,0.466-0.182
					c2.099-4.272,5.489-8.31,8.214-10.648c0.41-0.358,1.291-0.956,1.451-1.45c0.336-1.052,1.371-0.654,1.371,0.034
					c0.006,0.956-0.904,0.66-1.081,0.705c-0.239,0.063-1.638,1.297-1.883,1.53c-2.827,2.651-5.46,5.961-7.201,9.448
					c1.308-0.597,2.457-1.28,3.43-2.093c1.615-1.342,3.64-4.147,4.931-5.643c2.884-3.339,4.897-5.233,8.378-7.667
					c0.125-2.127,2.599,1.712,0.29,0.552c-2.554,1.655-5.5,4.755-7.668,7.901c-1.564,2.27-2.679,4.078-3.464,6.678
					c-0.853,2.827-1.524,6.371-2.548,8.157c-0.33,0.574-0.7,1.035-1.098,1.399c4.294-0.899,8.782-4.499,11.279-7.44
					c0.603-0.705,1.723-2.201,1.712-3.14c0-0.438,0.057-0.887,0.626-0.887c0.717-0.006,1.2,0.99,0.125,1.394
					c-0.353,0.137-0.284,0.154-0.506,0.535c-1.115,1.883-1.832,2.958-3.396,4.528c-1.678,1.678-3.578,3.072-5.637,4.243
					c-1.849,1.047-4.573,2.201-6.78,1.86c-1.661,0.074-3.293-0.87-4.158-2.133c-0.739-1.081-1.018-2.434-0.705-3.743
					c0.017-1.53,0.256-3.191,0.501-4.215c1.268-5.034,3.862-8.344,7.69-11.717c0.398-0.353,1.621-1.752,2.122-1.638
					c0.66,0.296,0.722,1.098-0.233,1.308c-1.166,0.262-0.711-0.085-1.758,0.762c-3.362,2.708-6.137,7.377-7.218,11.535
					c-0.125,0.489-0.216,0.961-0.29,1.462c-0.046,0.284-0.091,0.614-0.137,0.961C355.954,334.273,356.995,333.42,358.491,332.834
					L358.491,332.834z"/>
				<path style="fill-rule:evenodd;clip-rule:evenodd;fill:#0043C2;" d="M351.415,369.829c13.828-0.392,23.77,17.383,17.809,34.663
					C363.172,390.471,345.21,391.939,351.415,369.829L351.415,369.829z"/>
				<path style="fill-rule:evenodd;clip-rule:evenodd;fill:#FF8E1C;" d="M322.179,268.85c0.046-0.313,0.097-0.62,0.154-0.916
					c2.645-0.921,4.903-2.122,7.15-3.8c0.449-0.341,0.705-0.62,1.24-0.779c0.899-0.267,0.398-1.001-0.023-0.83
					c-0.188,0.074-0.546,0.62-0.762,0.836c-1.297,1.263-4.067,2.725-6.302,3.623c3.464-2.417,6.439-6.132,7.855-8.777
					c0.188-0.353,0.461-1.069,0.825-1.291c0.762-0.461,0.205-1.047-0.341-0.887c-0.768,0.222-0.319,0.751-0.319,0.876
					c0.006,0.171-0.66,1.371-0.791,1.587c-1.957,3.271-4.909,6.592-8.35,8.634c0.205-0.785,0.461-1.513,0.796-2.173
					c0.705-1.388,2.4-3.322,3.265-4.505c1.945-2.645,2.981-4.42,4.164-7.343c1.524-0.444-1.667-1.593-0.444-0.12
					c-0.773,2.127-2.531,4.778-4.448,6.866c-1.382,1.513-2.508,2.616-4.266,3.618c-1.075,0.614-2.326,1.223-3.413,1.826
					c0-0.017,0.006-0.034,0.006-0.046c0.296-1.621,1.069-3.475,2.093-4.772c0.893-1.138,1.195-0.563,1.485-0.916
					c0.364-0.438-0.33-1.104-0.751-0.341c-0.284,0.518-0.728,0.819-1.121,1.285c-1.069,1.268-1.968,3.208-2.241,5.085
					c-0.222,0.131-0.438,0.262-0.637,0.392c-0.205-2.998,1.621-6.712,3.379-8.998c0.427-0.563,1.371-1.644,2.122-1.854
					c0.347-0.102,0.694-0.245,0.563-0.614c-0.159-0.472-1.064-0.557-1.143,0.245c-0.029,0.256-0.057,0.216-0.307,0.449
					c-1.251,1.172-1.945,1.888-2.844,3.282c-0.961,1.49-1.638,3.054-2.105,4.676c-0.279,0.978-0.5,2.218-0.387,3.339
					c-0.063,0.057-0.125,0.108-0.182,0.159c-2.44,2.252-0.865,4.983,1.041,5.733c1.723,0.677,3.885-0.017,4.744-2.366
					c1.399-0.341,3.02-1.024,3.919-1.496c3.737-2.002,5.79-4.471,7.611-7.764c0.188-0.341,1.03-1.468,0.825-1.769
					c-0.387-0.364-1.041-0.216-0.995,0.461c0.063,0.819,0.233,0.444-0.205,1.325c-1.394,2.833-4.493,5.739-7.571,7.417
					c-0.364,0.193-0.722,0.364-1.103,0.529c-0.626,0.273-1.496,0.637-2.349,0.887C322.082,269.379,322.139,269.123,322.179,268.85
					L322.179,268.85z"/>
				<path style="fill-rule:evenodd;clip-rule:evenodd;fill:#0078FF;" d="M352.911,274.299c11.876-16.507,47.097-15.096,67.278,4.613
					C394.018,275.698,380.009,297.847,352.911,274.299L352.911,274.299z"/>
			</g>
		</g>
		<g>
			<linearGradient id="SVGID_1_" gradientUnits="userSpaceOnUse" x1="279.088" y1="164.0193" x2="258.2193" y2="212.9805">
				<stop  offset="0" style="stop-color:#0078FF"/>
				<stop  offset="0.1545" style="stop-color:#006FF5"/>
				<stop  offset="1" style="stop-color:#0043C2"/>
			</linearGradient>
			<path style="fill-rule:evenodd;clip-rule:evenodd;fill:url(#SVGID_1_);" d="M305.354,191.499
				c8.828-22.013-3.18-20.63-16.791-19.22c-16.507,1.706-37.228,6.877-48.627,12.019c-14.675,6.621-15.932,12.969,5.768,9.436
				c22.991-3.743,38.519-10.386,30.772,1.399c-6.564,9.988-26.216,32.063-27.848,31.193c-3.521-1.883,7.764,31.91,18.696,19.737
				C272.71,240.063,294.461,218.67,305.354,191.499L305.354,191.499z"/>
			<path style="fill-rule:evenodd;clip-rule:evenodd;fill:#FF8E1C;" d="M147.716,463.175c-1.28,1.792-6.57,8.475-10.25,15.54
				c-6.837,13.139,0.711,11.825,6.154,7.252c2.093-1.758,2.981-2.958,4.897-6.905c0.825-1.689,3.896-2.122,5.034-2.969
				c6.046-4.511-0.011-6.035,4.186-11.012c26.597-31.563,40.976-41.25,56.88-61.459c16.711-21.228,29.777-44.509,19.845-15.164
				c-5.597,16.546-21.245,53.263-26.108,67.028c-3.316,9.374-5.216,11.501-1.348,11.74c1.342,0.085,4.522-0.023,5.779,0.398
				c1.883,0.631,3.31,1.724,7.429,2.036c4.374,0.33,7.576-0.495,8.111-0.927c0.591-0.483-1.36-1.49-3.925-2.178
				c-3.413-0.916-6.604-4.107-7.849-5.716c-1.815-2.355-0.478-3.532,1.985-7.4c33.929-53.246,103.181-183.439,40.982-230.854
				c-5.898-4.499-8.031,3.578-16.108,4.13c-2.645,0.182-3.959,4.602-19.385,0.757c-32.376-8.06-7.173,28.321-3.333,32.262
				c19.766,20.295,24.475,46.443,12.394,76.094C225.835,353.618,162.721,442.221,147.716,463.175L147.716,463.175z"/>
			<path style="fill-rule:evenodd;clip-rule:evenodd;fill:#0078FF;" d="M287.266,281.085c2.201-15.136-2.247-46.647-20.266-61.14
				c-11.114-8.942-20.756-1.291-28.048,5.216c-23.457-4.351-70.554,2.133-30.471,30.556c8.771,6.223,16.387,18.549,21.87,28.838
				c3.02,5.671-0.483,8.788,4.636,11.018C248.741,301.556,281.06,296.448,287.266,281.085L287.266,281.085z"/>
			<path style="fill-rule:evenodd;clip-rule:evenodd;fill:#0043C2;" d="M267.488,248.492c0.336-9.414-1.263-19.044-5.119-26.068
				c-3.868-7.025-11.365-9.055-18.389-5.825c-5.512,2.537-6.888,4.175-17.673,3.669c-12.064-0.563-20.318,3.219-14.413,5.631
				c21.654,8.851,43.764,24.02,48.525,27.553C267.261,258.538,267.261,254.943,267.488,248.492L267.488,248.492z"/>
			<path style="fill-rule:evenodd;clip-rule:evenodd;fill:#FF8E1C;" d="M264.098,251.211c-1.45-2.429-24.151-15.744-31.847-20.289
				c-10.142-5.978,21.387-13.668,26.99-1.115C260.976,233.704,265.264,247.571,264.098,251.211L264.098,251.211z"/>
			
				<linearGradient id="SVGID_00000096761304712711324470000001616423248109362594_" gradientUnits="userSpaceOnUse" x1="246.0285" y1="336.6866" x2="226.7651" y2="380.0293">
				<stop  offset="0" style="stop-color:#0078FF"/>
				<stop  offset="0.1545" style="stop-color:#006FF5"/>
				<stop  offset="1" style="stop-color:#0043C2"/>
			</linearGradient>
			<path style="fill-rule:evenodd;clip-rule:evenodd;fill:url(#SVGID_00000096761304712711324470000001616423248109362594_);" d="
				M280.736,321.544c-10.443,7.423-32.251,1.655-44.458-4.687c-32.018,69.883-64.041,107.663-79.382,131.916
				c-0.085,6.985,8.936,6.422,15.261,2.668c20.056-17.65,27.712-24.51,45.988-42.956c3.123-3.145,4.255-1.934,2.872,2.298
				l-9.812,34.111l12.679,4.055C274.172,387.758,280.315,333.978,280.736,321.544L280.736,321.544z"/>
			
				<linearGradient id="SVGID_00000180326448712303393660000006034030469672246456_" gradientUnits="userSpaceOnUse" x1="233.9194" y1="199.7369" x2="245.959" y2="235.8558">
				<stop  offset="0.2225" style="stop-color:#E35C00"/>
				<stop  offset="0.795" style="stop-color:#FF8E1C"/>
			</linearGradient>
			<path style="fill-rule:evenodd;clip-rule:evenodd;fill:url(#SVGID_00000180326448712303393660000006034030469672246456_);" d="
				M241.995,196.083c0.41,6.706,9.874,32.251,9.863,32.405c1.291,2.73-18.372,5.677-17.815,0.421
				c0.677-6.416-1.888-20.539-7.787-31.637c-0.859-1.615,9.175-0.034,13.008-1.029C243.678,195.099,241.961,195.475,241.995,196.083
				L241.995,196.083z"/>
			
				<linearGradient id="SVGID_00000174592388950406505540000008719556095381629108_" gradientUnits="userSpaceOnUse" x1="90.7732" y1="376.6815" x2="224.0118" y2="237.0217">
				<stop  offset="0" style="stop-color:#0078FF"/>
				<stop  offset="0.1545" style="stop-color:#006FF5"/>
				<stop  offset="1" style="stop-color:#0043C2"/>
			</linearGradient>
			<path style="fill-rule:evenodd;clip-rule:evenodd;fill:url(#SVGID_00000174592388950406505540000008719556095381629108_);" d="
				M208.743,251.467c16.217-9.408,16.364-31.216-9.738-24.749c-65.634,16.251-121.627,76.697-124.34,145.989
				c-0.666,17.001,3.8,30.658,11.313,38.832c14.277,15.54,37.706,13.594,36.824,1.229
				C116.728,327.22,140.009,291.357,208.743,251.467L208.743,251.467z"/>
			<path style="fill-rule:evenodd;clip-rule:evenodd;fill:#81BDFF;" d="M194.278,229.705c2.053,0.273,4.38,0.08,6.746-0.54
				c6.268-1.638,10.847-2.366,13.702,0.864c2.725,3.072-0.455-13.02-10.113-17.917c3.709-3.436,8.777-5.546,9.721-1.598
				c0.666,2.781,1.445,0.449,1.337-1.365c-0.148-2.554-1.064-4.59-2.406-6.12c-4.095-4.664-10.415-5.21-15.42-1.132
				c-0.302-4.511,1.706-8.896,5.779-8.953c0.347-0.006,2.036-0.296,0.364-1.337c-4.454-2.759-10.591,1.558-12.076,4.562
				c-2.651,0.518-4.482,2.059-5.603,4.05c-1.217-1.74-2.361-4.363-1.047-6.882c1.115-2.127,0.154-2.093-0.893-1.422
				c-2.759,1.78-5.074,6.297-4.613,9.744c-1.9,1.86-2.582,7.85-0.273,12.895c-2.873,1.325-5,4.01-4.659,8.219
				c-4.488,3.953-1.928,12.343,3.185,13.674c0.461,0.119,1.24-0.518,0.046-1.598c-3.18-2.872,1.291-5.358,2.963-6.297
				c0.404-0.222,0.819-0.449,1.251-0.682c-1.297,8.191,7.736,14.743,14.624,17.127c2.861,0.984,3.817,0.466,1.502-1.456
				c-1.684-1.399-3.942-7.992-4.135-10.813C194.193,231.673,194.204,230.638,194.278,229.705L194.278,229.705z"/>
			
				<linearGradient id="SVGID_00000180357471601033673440000004258039054213081013_" gradientUnits="userSpaceOnUse" x1="147.8995" y1="260.4496" x2="158.3356" y2="349.1563">
				<stop  offset="0" style="stop-color:#FF8E1C"/>
				<stop  offset="0.6028" style="stop-color:#E35C00"/>
			</linearGradient>
			<path style="fill-rule:evenodd;clip-rule:evenodd;fill:url(#SVGID_00000180357471601033673440000004258039054213081013_);" d="
				M112.371,282.456c-0.62-6.706-2.503-17.508,7.224-18.298l55.595-4.539c11.126-0.91,14.931,1.786,15.909,16.575l8.532,128.669
				c0.614,9.272-1.923,17.03-12.349,17.786l-48.411,3.487c-9.891,0.711-13.299,0.302-14.88-16.939L112.371,282.456z"/>
			<path style="fill-rule:evenodd;clip-rule:evenodd;fill:#FF8E1C;" d="M189.568,399.777c21.882-15.597-1.843-9.186-12.832-5.665
				c-23.673,7.571-18.674,2.929-1.024-3.561c36.466-13.407,37.194-21.671,2.048-13.805c-6.365,1.422-11.16,2.446-14.658,3.157
				c-13.919,2.85-6.746,0.364,3.851-3.123c4.306-1.416,55.924-18.896,25.277-20.107c-12.883-0.512-52.062,7.519-58.001,6.763
				c-4.414-0.563-14.169-1.206-14.442-3.771l-0.973-9.243c-30.92,11.621-40.072,46.699-19.328,62.284
				C121.551,429.292,169.95,413.763,189.568,399.777L189.568,399.777z"/>
			<path style="fill-rule:evenodd;clip-rule:evenodd;fill:#0043C2;" d="M208.356,195.691c-8.64-1.593-15.193-9.237-15.193-18.435
				c0-2.406,0.444-4.704,1.263-6.814c4.078,2.104,8.651,3.674,13.754,4.545c1.411,0.245,2.998,0.284,4.681,0.142
				C209.835,182.307,208.504,190.116,208.356,195.691L208.356,195.691z"/>
			<path style="fill-rule:evenodd;clip-rule:evenodd;fill:#E35C00;" d="M204.38,198.62c2.702,2.588,5.404,2.247,4.55-6.427
				C207.622,178.814,192.674,187.409,204.38,198.62L204.38,198.62z"/>
			<path style="fill:#FFFFFF;" d="M207.736,197.772c2.85,0,5.426,1.325,7.292,3.458c1.849,2.116,2.992,5.034,2.992,8.253
				c0,3.219-1.143,6.137-2.992,8.253c-1.866,2.139-4.442,3.458-7.292,3.458c-2.855,0-5.432-1.32-7.298-3.458
				c-1.849-2.116-2.992-5.034-2.992-8.253c0-3.219,1.143-6.137,2.992-8.253C202.304,199.098,204.88,197.772,207.736,197.772
				L207.736,197.772z M214.254,201.908c-1.672-1.917-3.976-3.106-6.519-3.106c-2.548,0-4.852,1.189-6.524,3.106
				c-1.689,1.934-2.736,4.613-2.736,7.576c0,2.964,1.046,5.643,2.736,7.582c1.672,1.917,3.976,3.1,6.524,3.1
				c2.543,0,4.846-1.183,6.519-3.1c1.689-1.94,2.736-4.619,2.736-7.582C216.99,206.521,215.944,203.842,214.254,201.908
				L214.254,201.908z"/>
			<path style="fill-rule:evenodd;clip-rule:evenodd;fill:#FF8E1C;" d="M245.544,198.193c10.045-24.333-2.639-60.765-27.371-36.921
				c-10.073,9.715-13.094,27.979-12.417,36.187C208.276,227.891,235.653,222.157,245.544,198.193L245.544,198.193z"/>
			
				<linearGradient id="SVGID_00000006696065091667077900000004565836440863614631_" gradientUnits="userSpaceOnUse" x1="290.1528" y1="72.3503" x2="181.7961" y2="160.641">
				<stop  offset="0" style="stop-color:#0078FF"/>
				<stop  offset="0.1545" style="stop-color:#006FF5"/>
				<stop  offset="1" style="stop-color:#0043C2"/>
			</linearGradient>
			<path style="fill-rule:evenodd;clip-rule:evenodd;fill:url(#SVGID_00000006696065091667077900000004565836440863614631_);" d="
				M268.689,159.543c8.93-1.479,24.902-4.926,35.027-14.544c16.353-15.545,13.469-41.09-10.574-51.204
				c-12.758-5.364-23.526-14.607-0.859-35.146c17.166-15.545,2.605-43.564-27.075-31.739c-10.711,4.266-17.781-11.12-3.271-18.315
				c-13.344-0.557-26.045,10.591-15.995,30.51c-17.673-2.446-61.106,2.184-47.643,44.355c-42.205,9.294-43.439,87.658,8.026,96.469
				c8.475,1.45,23.304-4.402,27.411-12.656c3.919,40.965,32.956,27.837,34.032,7.872C268.108,168.82,260.39,160.914,268.689,159.543
				L268.689,159.543z"/>
			<path style="fill-rule:evenodd;clip-rule:evenodd;" d="M225.528,191.021c-0.319,0.99-0.444,2.241-0.313,3.419
				c0.597,5.313,6.007,4.704,6.24-0.398c0.176-3.817-1.547-5.415-3.868-5.807c-0.637-0.108-1.03-0.575-1.263-1.894
				c-0.193,0.142-0.83,1.445,0.04,2.412c-0.694-0.267-1.513-2.167-1.559-2.247c-0.375,1.132,0.006,2.696,0.95,3.191
				c-0.802-0.216-1.752-1.047-1.917-2.52C223.31,188.353,223.583,190.048,225.528,191.021L225.528,191.021z"/>
			<path style="fill-rule:evenodd;clip-rule:evenodd;" d="M213.498,196.248c-2.622-2.793-5.017-2.673-6.16-1.212
				c-0.381,0.489-1.911,1.251-2.878,0.779c0.228,0.7,1.246,0.893,2.702,0.318c0.222-0.091-1.587,1.308-1.399,1.195
				c0.262-0.165,1.82-0.432,2.924-2.014c0.307-0.046-0.233,0.921-0.381,1.206c0.529-0.193,0.916-0.546,1.2-0.836
				c0.506-0.501,0.461-0.478,1.166-0.427C212.025,195.367,213.117,195.924,213.498,196.248L213.498,196.248z"/>
			<path style="fill-rule:evenodd;clip-rule:evenodd;" d="M235.658,182.375c-1.82-4.272-8.35-8.754-14.072-0.017
				C223.6,180.868,227.61,174.708,235.658,182.375L235.658,182.375z"/>
			<path style="fill-rule:evenodd;clip-rule:evenodd;" d="M213.976,189.201c-4.732-1.814-6.473-0.643-7.889,2.685
				C206.177,188.837,208.674,184.821,213.976,189.201L213.976,189.201z"/>
			<path style="fill-rule:evenodd;clip-rule:evenodd;fill:#0078FF;" d="M228.264,190.566c-0.83-0.324-1.428,0.006-1.809,0.643
				c-0.21,0.358-0.353,0.813-0.432,1.308c-0.41,2.736,0.722,4.164,1.854,4.294c1.058,0.119,2.258-1.274,1.735-4.215
				C229.447,191.652,228.958,190.839,228.264,190.566L228.264,190.566z"/>
			<path style="fill-rule:evenodd;clip-rule:evenodd;fill:#FF8E1C;" d="M243.479,188.66c4.255-14.658,12.855-10.71,13.702-3.208
				C258.217,194.656,237.501,209.251,243.479,188.66L243.479,188.66z"/>
			<path style="fill-rule:evenodd;clip-rule:evenodd;fill:#0078FF;" d="M223.475,208.693c-1.735-2.395-8.765-3.731-9.96,0.887
				C212.121,214.95,220.437,218.17,223.475,208.693L223.475,208.693z"/>
			<path style="fill-rule:evenodd;clip-rule:evenodd;fill:#0043C2;" d="M223.531,208.415c-1.291-4.374-5.842-7.417-7.599-3.339
				c-0.011,0.273-4.613-3.857-4.562,0.802C211.427,210.57,218.418,211.623,223.531,208.415L223.531,208.415z"/>
			<path style="fill-rule:evenodd;clip-rule:evenodd;fill:#FFFFFF;" d="M214.431,210.929c1.445,2.776,5.25,1.769,7.013-0.569
				c0.637-0.847,1.029-1.439-0.609-0.95c-3.612,1.064-4.715,1.018-6.439,0.239c-0.341-0.159-0.643,0.063-0.432,0.557
				C214.038,210.389,214.254,210.593,214.431,210.929L214.431,210.929z"/>
			<path style="fill:#FFFFFF;" d="M249.986,197.317c1.041,0.592,1.968,1.627,2.707,2.981c1.143,2.099,1.849,4.988,1.849,8.162
				c0,3.174-0.705,6.058-1.849,8.157c-1.194,2.196-2.878,3.549-4.761,3.549c-1.889,0-3.572-1.354-4.761-3.549
				c-1.143-2.099-1.854-4.983-1.854-8.157c0-1.462,0.154-2.867,0.427-4.158c0.518-2.457,2.156-6.507,4.772-7.298
				c0.558-0.165,1.047,0.637,0.188,1.047c-2.304,1.098-3.492,4.209-3.976,6.558c-0.245,1.195-0.381,2.491-0.381,3.851
				c0,3.003,0.66,5.716,1.724,7.667c1.012,1.86,2.378,3.009,3.862,3.009c1.479,0,2.844-1.149,3.856-3.009
				c1.064-1.951,1.723-4.664,1.723-7.667c0-3.009-0.66-5.716-1.723-7.667c-0.773-1.422-1.752-2.429-2.833-2.827
				C249.298,197.772,249.639,197.551,249.986,197.317L249.986,197.317z"/>
			<path style="fill-rule:evenodd;clip-rule:evenodd;fill:#FFFFFF;" d="M229.225,190.406c-0.489-0.142-0.808,0-0.978,0.267
				c-0.097,0.154-0.148,0.347-0.159,0.552c-0.063,1.16,0.665,1.763,1.308,1.82c0.603,0.051,1.189-0.54,0.711-1.786
				C229.953,190.862,229.629,190.52,229.225,190.406L229.225,190.406z"/>
			<path style="fill-rule:evenodd;clip-rule:evenodd;fill:#81BDFF;" d="M230.01,193.723c-0.262-0.227-0.495-0.239-0.683-0.119
				c-0.102,0.063-0.193,0.165-0.262,0.29c-0.381,0.688-0.108,1.274,0.267,1.502c0.353,0.21,0.887,0.023,0.961-0.882
				C230.323,194.223,230.226,193.916,230.01,193.723L230.01,193.723z"/>
			<path style="fill:#E54A00;" d="M191.207,209.62c-0.986-1.261-2.183-2.46-3.015-3.162c-3.611-2.972-7.256-4.367-11.512-5.052
				c-1.013-0.772-2.07-1.513-3.186-2.229c-0.825-0.529-1.433-0.768-2.019-1.547c-0.978-1.303-1.871-0.034-1.337,0.546
				c0.239,0.25,1.348,0.506,1.831,0.722c1.073,0.509,2.321,1.342,3.61,2.347c-0.668-0.087-1.351-0.16-2.051-0.22
				c-0.592-0.051-2.611-0.501-2.986-0.074c-0.404,0.705,0.074,1.467,1.075,1.024c1.217-0.535,0.58-0.54,2.088-0.478
				c0.835,0.035,1.693,0.137,2.561,0.295c0.412,0.337,0.827,0.688,1.238,1.05c-0.415-0.107-0.855-0.214-1.343-0.327
				c-0.438-0.102-0.438-0.034-0.665-0.307c-0.7-0.836-1.553-0.171-1.354,0.455c0.154,0.495,0.62,0.432,1.052,0.318
				c0.76-0.191,2.1,0.179,3.035,0.51c1.654,1.509,3.225,3.134,4.429,4.555c-4.214-1.809-8.859-2.851-12.259-3.103
				c-0.603-0.046-1.786,0-2.264-0.341c-0.995-0.722-1.661,0.319-1.206,0.939c0.631,0.859,1.251-0.011,1.439-0.085
				c0.256-0.097,2.332,0.08,2.702,0.125c4.22,0.505,8.689,1.702,12.518,3.62c0.038,0.05,0.078,0.102,0.115,0.151
				c0.04,0.054,0.1,0.133,0.174,0.231c-7.368,0.569-13.734,1.844-20.958-2.813c0.028-1.598-2.463,1.632-0.791,0.995
				c1.546,0.919,2.982,1.608,4.35,2.167c-0.069,0.005-0.142,0.014-0.226,0.035c-0.682,0.171-0.796,1.172,0.341,1.206
				c0.535,0.011,1.371,0.631,1.832,0.904c3.245,1.898,8.584,3.973,13.657,4.645c0.057,0.043,0.113,0.087,0.17,0.131
				c-0.023,0.005-0.047,0.01-0.067,0.014c-2.821,0.506-6.297,0.375-9.027-0.501c-2.389-0.762-1.638-1.598-2.395-1.86
				c-0.933-0.324-1.587,1.212-0.091,1.433c1.007,0.148,1.763,0.682,2.764,1.041c2.716,0.965,6.425,1.251,9.649,0.537
				c0.262,0.216,0.526,0.44,0.794,0.674c0.391,0.341,0.782,0.64,1.172,0.901c-0.454,0.066-0.882,0.116-1.251,0.157
				c-0.518,0.057-1.013,0.091-1.53,0.108c-4.425,0.085-9.823-1.177-13.424-3.436c-1.126-0.705-0.66-0.392-1.234-1.342
				c-0.472-0.779-1.257-0.529-1.365,0.119c0.023,0.461,1.746,1.177,2.201,1.439c4.391,2.503,8.384,3.942,13.731,3.805
				c0.901-0.034,2.246-0.178,3.551-0.436c0.171,0.095,0.342,0.182,0.512,0.263c-4.279,1.327-9.695,1.02-13.386,0.151
				c-1.007-0.239-3.003-0.842-3.618-1.689c-0.284-0.393-0.631-0.762-1.143-0.381c-0.648,0.472-0.421,1.678,0.813,1.337
				c0.398-0.114,0.353-0.051,0.802,0.142c2.247,0.95,3.6,1.445,6.052,1.815c2.617,0.398,5.244,0.398,7.872,0.085
				c1.241-0.151,2.719-0.436,4.096-0.929c2.627,0.629,4.936-0.448,6.165-2.462C195.437,215.306,195.115,210.691,191.207,209.62z
				 M177.512,202.057c3.742,0.901,7.54,2.78,10.31,5.021c0.432,0.364,0.825,0.728,1.229,1.126c0.348,0.348,0.762,0.77,1.18,1.233
				c-0.201-0.022-0.407-0.039-0.623-0.044c-0.356-0.009-0.709-0.012-1.059-0.012c-0.406-0.427-0.822-0.821-1.216-1.165
				c-1.723-1.502-3.623-2.81-5.751-3.857c-0.986-0.486-1.794-0.819-2.624-1.093C178.487,202.854,178.005,202.451,177.512,202.057z
				 M184.142,208.619c-1.31-1.585-2.659-3.026-4.087-4.362c2.523,1.185,5.373,3,7.417,5.136c-0.642,0.015-1.275,0.041-1.9,0.076
				c-0.42-0.233-0.849-0.457-1.285-0.672C184.239,208.739,184.19,208.678,184.142,208.619z M169.279,211.998
				c-0.296-0.154-1.9-1.069-2.031-1.263c-0.05-0.075-0.06-0.37-0.216-0.582c4.901,1.908,8.96,2.278,14.077,5.859
				C177.016,215.399,172.823,213.878,169.279,211.998z"/>
			<path style="fill-rule:evenodd;clip-rule:evenodd;fill:#FFFFFF;" d="M218.776,204.018c-0.296,0.063-0.415,0.222-0.415,0.41
				c-0.006,0.102,0.028,0.216,0.091,0.324c0.341,0.603,0.904,0.711,1.257,0.557c0.324-0.142,0.444-0.603-0.205-1.104
				C219.3,204.046,219.021,203.961,218.776,204.018L218.776,204.018z"/>
		</g>
	</g>
</g>
</svg>
